<svg width="19" height="30" viewBox="0 0 19 30" fill="none" xmlns="http://www.w3.org/2000/svg">
<path d="M1.16629 16.1706L14.5167 29.5207C14.8255 29.8298 15.2376 30 15.6772 30C16.1167 30 16.5289 29.8298 16.8376 29.5207L17.8208 28.5378C18.4605 27.8973 18.4605 26.8564 17.8208 26.2169L6.61015 15.0062L17.8332 3.78314C18.142 3.47412 18.3125 3.06217 18.3125 2.6229C18.3125 2.18315 18.142 1.7712 17.8332 1.46194L16.8501 0.479263C16.541 0.170242 16.1291 1.90879e-07 15.6896 2.29302e-07C15.2501 2.67725e-07 14.8379 0.170243 14.5291 0.479264L1.16629 13.8416C0.856785 14.1516 0.686787 14.5655 0.687762 15.0055C0.686787 15.4472 0.856785 15.8608 1.16629 16.1706Z" fill="white"/>
</svg>
