<svg width="19" height="30" viewBox="0 0 19 30" fill="none" xmlns="http://www.w3.org/2000/svg">
<path d="M17.8337 13.8294L4.48332 0.479264C4.17454 0.170242 3.76235 -5.37624e-07 3.32284 -4.60778e-07C2.88334 -3.83932e-07 2.47114 0.170242 2.16237 0.479264L1.1792 1.46218C0.539453 2.10267 0.539453 3.14363 1.1792 3.78314L12.3898 14.9938L1.16677 26.2169C0.857991 26.5259 0.687505 26.9378 0.687505 27.3771C0.687505 27.8168 0.857991 28.2288 1.16677 28.5381L2.14993 29.5207C2.45895 29.8298 2.8709 30 3.31041 30C3.74992 30 4.16211 29.8298 4.47089 29.5207L17.8337 16.1584C18.1432 15.8484 18.3132 15.4345 18.3122 14.9945C18.3132 14.5528 18.1432 14.1392 17.8337 13.8294Z" fill="white"/>
</svg>
