<svg width="680" height="680" fill="none" xmlns="http://www.w3.org/2000/svg"><path d="M340 0l340 340-340 340L0 340 340 0z" fill="#F33"/><path d="M111.516 302.885l31.158 81.588 31.158-81.588h-9.463l-21.695 58.739-21.696-58.739h-9.462zm73.124 0v76.972h8.54v-76.972h-8.54zm28.4 0v76.972h8.539v-33.466h7.501c17.541 0 24.349-10.732 24.349-21.58 0-4.846-1.384-11.655-7.039-16.502-5.193-4.5-11.655-5.424-19.387-5.424H213.04zm8.539 8.078h6.347c5.539 0 16.964 1.154 16.964 13.387 0 8.886-6.116 13.963-16.271 13.963h-7.04v-27.35zm129.877-1.731c-9.232-7.039-18.118-7.616-22.734-7.616-23.08 0-40.274 17.079-40.274 40.044 0 22.272 16.964 39.582 39.813 39.582 5.77 0 14.656-1.385 23.195-7.501v-10.617c-1.385 1.385-4.5 4.27-8.886 6.463-4.039 2.077-9.116 3.577-14.309 3.577-14.079 0-31.043-10.501-31.043-31.389 0-17.771 13.156-32.081 30.927-32.081 4.501 0 9.232 1.154 13.271 3 3.924 1.847 7.617 4.732 10.04 7.155v-10.617zm51.64 72.01c22.272 0 40.044-16.964 40.044-39.813 0-22.965-17.887-39.813-40.044-39.813-22.157 0-40.044 16.848-40.044 39.813 0 22.849 17.772 39.813 40.044 39.813zm0-71.548c17.31 0 31.273 14.079 31.273 31.735s-13.963 31.735-31.273 31.735c-17.31 0-31.274-14.079-31.274-31.735s13.964-31.735 31.274-31.735zm55.732-6.809v76.972h8.539v-76.972h-8.539zm36.938 76.972v-59.431l60.008 62.893v-80.434h-8.539v59.662l-60.008-62.893v80.203h8.539z" fill="#fff"/></svg>