<svg width="680" height="680" viewBox="0 0 680 680" fill="none" xmlns="http://www.w3.org/2000/svg">
<path d="M340 0L680 340L340 680L7.06433e-05 340L340 0Z" fill="#FF3333"/>
<path d="M111.516 302.885L142.674 384.473L173.832 302.885H164.369L142.674 361.624L120.978 302.885H111.516Z" fill="white"/>
<path d="M184.64 302.885V379.857H193.18V302.885H184.64Z" fill="white"/>
<path d="M213.04 302.885V379.857H221.579V346.391H229.08C246.621 346.391 253.429 335.659 253.429 324.811C253.429 319.965 252.045 313.156 246.39 308.309C241.197 303.809 234.735 302.885 227.003 302.885H213.04ZM221.579 310.963H227.926C233.465 310.963 244.89 312.117 244.89 324.35C244.89 333.236 238.774 338.313 228.619 338.313H221.579V310.963Z" fill="white"/>
<path d="M351.456 309.232C342.224 302.193 333.338 301.616 328.722 301.616C305.642 301.616 288.448 318.695 288.448 341.66C288.448 363.932 305.412 381.242 328.261 381.242C334.031 381.242 342.917 379.857 351.456 373.741V363.124C350.071 364.509 346.956 367.394 342.57 369.587C338.531 371.664 333.454 373.164 328.261 373.164C314.182 373.164 297.218 362.663 297.218 341.775C297.218 324.004 310.374 309.694 328.145 309.694C332.646 309.694 337.377 310.848 341.416 312.694C345.34 314.541 349.033 317.426 351.456 319.849V309.232Z" fill="white"/>
<path d="M403.096 381.242C425.368 381.242 443.14 364.278 443.14 341.429C443.14 318.464 425.253 301.616 403.096 301.616C380.939 301.616 363.052 318.464 363.052 341.429C363.052 364.278 380.824 381.242 403.096 381.242ZM403.096 309.694C420.406 309.694 434.369 323.773 434.369 341.429C434.369 359.085 420.406 373.164 403.096 373.164C385.786 373.164 371.822 359.085 371.822 341.429C371.822 323.773 385.786 309.694 403.096 309.694Z" fill="white"/>
<path d="M458.828 302.885V379.857H467.367V302.885H458.828Z" fill="white"/>
<path d="M495.766 379.857V320.426L555.774 383.319V302.885H547.235V362.547L487.227 299.654V379.857H495.766Z" fill="white"/>
</svg>
