<svg width="86" height="86" viewBox="0 0 86 86" fill="none" xmlns="http://www.w3.org/2000/svg">
<path d="M43 0L86 43L43 86L2.90482e-06 43L43 0Z" fill="url(#paint0_linear)"/>
<path d="M14.1035 38.3061L18.0441 48.6246L21.9846 38.3061H20.7879L18.0441 45.7348L15.3003 38.3061H14.1035Z" fill="white"/>
<path d="M23.3516 38.3061V48.0408H24.4316V38.3061H23.3516Z" fill="white"/>
<path d="M26.9433 38.3061V48.0408H28.0233V43.8083H28.972C31.1904 43.8083 32.0514 42.451 32.0514 41.0791C32.0514 40.4661 31.8763 39.605 31.1612 38.9921C30.5044 38.4229 29.6871 38.3061 28.7093 38.3061H26.9433ZM28.0233 39.3277H28.826C29.5266 39.3277 30.9714 39.4737 30.9714 41.0207C30.9714 42.1445 30.1979 42.7867 28.9136 42.7867H28.0233V39.3277Z" fill="white"/>
<path d="M44.4489 39.1088C43.2814 38.2185 42.1576 38.1456 41.5738 38.1456C38.6549 38.1456 36.4802 40.3056 36.4802 43.2099C36.4802 46.0267 38.6257 48.2159 41.5154 48.2159C42.2451 48.2159 43.3689 48.0408 44.4489 47.2673V45.9245C44.2738 46.0997 43.8797 46.4645 43.3251 46.7418C42.8143 47.0045 42.1722 47.1943 41.5154 47.1943C39.7349 47.1943 37.5894 45.8662 37.5894 43.2245C37.5894 40.9769 39.2532 39.1672 41.5008 39.1672C42.07 39.1672 42.6684 39.3131 43.1792 39.5467C43.6754 39.7802 44.1425 40.145 44.4489 40.4515V39.1088Z" fill="white"/>
<path d="M50.9798 48.2159C53.7966 48.2159 56.0442 46.0705 56.0442 43.1807C56.0442 40.2764 53.782 38.1456 50.9798 38.1456C48.1777 38.1456 45.9155 40.2764 45.9155 43.1807C45.9155 46.0705 48.1631 48.2159 50.9798 48.2159ZM50.9798 39.1672C53.169 39.1672 54.935 40.9478 54.935 43.1807C54.935 45.4137 53.169 47.1943 50.9798 47.1943C48.7906 47.1943 47.0247 45.4137 47.0247 43.1807C47.0247 40.9478 48.7906 39.1672 50.9798 39.1672Z" fill="white"/>
<path d="M58.0283 38.3061V48.0408H59.1083V38.3061H58.0283Z" fill="white"/>
<path d="M62.6999 48.0408V40.5245L70.2892 48.4786V38.3061H69.2092V45.8516L61.6199 37.8975V48.0408H62.6999Z" fill="white"/>
<defs>
<linearGradient id="paint0_linear" x1="78.5" y1="-1.64516e-06" x2="21.5" y2="64.5" gradientUnits="userSpaceOnUse">
<stop stop-color="#FF3333"/>
<stop offset="0.990537" stop-color="#FF3333" stop-opacity="0"/>
</linearGradient>
</defs>
</svg>
