<svg width="86" height="86" fill="none" xmlns="http://www.w3.org/2000/svg"><path d="M43 0l43 43-43 43L0 43 43 0z" fill="url(#paint0_linear)"/><path d="M14.104 38.306l3.94 10.319 3.94-10.319h-1.196l-2.744 7.429-2.744-7.429h-1.197zm9.248 0v9.735h1.08v-9.735h-1.08zm3.591 0v9.735h1.08v-4.233h.949c2.218 0 3.08-1.357 3.08-2.729 0-.613-.176-1.474-.89-2.087-.658-.57-1.475-.686-2.453-.686h-1.766zm1.08 1.022h.803c.7 0 2.145.146 2.145 1.693 0 1.123-.773 1.766-2.057 1.766h-.89v-3.46zm16.426-.219a4.587 4.587 0 00-2.875-.963c-2.92 0-5.094 2.16-5.094 5.064 0 2.817 2.146 5.006 5.035 5.006.73 0 1.854-.175 2.934-.949v-1.343c-.175.176-.57.54-1.124.818a4.047 4.047 0 01-1.81.452c-1.78 0-3.926-1.328-3.926-3.97 0-2.247 1.664-4.057 3.912-4.057.569 0 1.167.146 1.678.38.496.233.963.598 1.27.905v-1.343zm6.531 9.107c2.817 0 5.064-2.145 5.064-5.035 0-2.905-2.262-5.035-5.064-5.035s-5.064 2.13-5.064 5.035c0 2.89 2.247 5.035 5.064 5.035zm0-9.049c2.189 0 3.955 1.78 3.955 4.014 0 2.233-1.766 4.013-3.955 4.013-2.19 0-3.955-1.78-3.955-4.013 0-2.233 1.766-4.014 3.955-4.014zm7.048-.861v9.735h1.08v-9.735h-1.08zM62.7 48.04v-7.515l7.59 7.954V38.306h-1.08v7.546l-7.59-7.954V48.04h1.08z" fill="#fff"/><defs><linearGradient id="paint0_linear" x1="78.5" y1="0" x2="21.5" y2="64.5" gradientUnits="userSpaceOnUse"><stop stop-color="#F33"/><stop offset=".991" stop-color="#F33" stop-opacity="0"/></linearGradient></defs></svg>