<svg width="12" height="20" fill="none" xmlns="http://www.w3.org/2000/svg"><path d="M5.985 10.341C3.16 10.341.812 7.995.812 5.219.812 2.347 3.16 0 5.986 0c2.922 0 5.173 2.346 5.173 5.219a5.142 5.142 0 01-5.157 5.123l-.017-.001zm0-7.324C4.79 3.017 3.88 4.022 3.88 5.22c0 1.196.91 2.106 2.107 2.106 1.245 0 2.107-.91 2.107-2.106.001-1.199-.862-2.203-2.108-2.203zm2.06 11.586l2.923 2.825c.575.621.575 1.531 0 2.106-.622.621-1.58.621-2.06 0l-2.922-2.873-2.826 2.873c-.287.287-.67.43-1.103.43-.335 0-.718-.144-1.054-.43-.575-.575-.575-1.485 0-2.107l2.97-2.825A13.49 13.49 0 01.91 13.263c-.719-.383-.862-1.34-.479-2.059.48-.718 1.341-.909 2.108-.43a6.62 6.62 0 006.897 0c.767-.479 1.676-.288 2.107.43.432.719.24 1.675-.432 2.059-.909.575-1.963 1.006-3.065 1.341v-.001z" fill="#fff"/></svg>