<svg width="24" height="24" fill="none" xmlns="http://www.w3.org/2000/svg"><circle cx="12" cy="12" r="12" fill="#F33"/><path d="M20.292 9.751a.51.51 0 01-.014.15l-1.11 4.441a.505.505 0 01-.487.383l-6.662.033H5.355a.505.505 0 01-.49-.382l-1.11-4.458a.504.504 0 01-.013-.154 1.061 1.061 0 111.378-1.01c0 .328-.151.622-.387.817l1.39 1.4c.351.354.839.557 1.337.557.59 0 1.152-.28 1.506-.749l2.285-3.027a1.061 1.061 0 111.809-.749c0 .284-.113.54-.295.731l.002.003 2.268 3.035c.354.474.918.756 1.51.756a1.87 1.87 0 001.332-.552l1.4-1.398a1.058 1.058 0 01.663-1.885 1.06 1.06 0 01.352 2.058zM19.06 16.34a.505.505 0 00-.505-.505H5.501a.505.505 0 00-.505.505v1.21c0 .28.226.505.505.505h13.054a.505.505 0 00.505-.504V16.34z" fill="#fff"/></svg>