<svg width="24" height="24" viewBox="0 0 24 24" fill="none" xmlns="http://www.w3.org/2000/svg">
<circle cx="12" cy="12" r="12" fill="#FF3333"/>
<path d="M20.2918 9.75128C20.2945 9.80081 20.2909 9.85121 20.2785 9.90127L19.1682 14.3424C19.1122 14.5661 18.9117 14.7235 18.6811 14.7247L12.0194 14.7583C12.0186 14.7583 12.0178 14.7583 12.0169 14.7583H5.35514C5.12339 14.7583 4.92146 14.6005 4.86547 14.3756L3.75519 9.91762C3.74241 9.86621 3.73871 9.8144 3.74194 9.7636C3.31243 9.62828 3 9.22636 3 8.75271C3 8.16829 3.4754 7.69289 4.05981 7.69289C4.64422 7.69289 5.11963 8.16829 5.11963 8.75271C5.11963 9.08182 4.96883 9.37628 4.73271 9.57081L6.12278 10.9714C6.4741 11.3254 6.96162 11.5283 7.46037 11.5283C8.05009 11.5283 8.61237 11.2483 8.96644 10.7791L11.2509 7.75211C11.059 7.56033 10.9402 7.29534 10.9402 7.00317C10.9402 6.41876 11.4156 5.94336 12 5.94336C12.5844 5.94336 13.0598 6.41876 13.0598 7.00317C13.0598 7.2866 12.9473 7.54385 12.7654 7.73421C12.766 7.73502 12.7668 7.73569 12.7674 7.73656L15.0353 10.7719C15.3892 11.2456 15.9535 11.5284 16.5449 11.5284C17.0483 11.5284 17.5216 11.3324 17.8775 10.9764L19.2763 9.57761C19.0352 9.38314 18.8804 9.08586 18.8804 8.75271C18.8804 8.16829 19.3558 7.69289 19.9402 7.69289C20.5246 7.69289 21 8.16829 21 8.75271C21 9.21371 20.7036 9.6058 20.2918 9.75128ZM19.0598 16.3396C19.0598 16.0609 18.8339 15.8349 18.5552 15.8349H5.50096C5.22224 15.8349 4.99628 16.0609 4.99628 16.3396V17.5508C4.99628 17.8295 5.22224 18.0555 5.50096 18.0555H18.5552C18.8339 18.0555 19.0598 17.8295 19.0598 17.5508V16.3396Z" fill="white"/>
</svg>
