<svg width="22" height="16" viewBox="0 0 22 16" fill="none" xmlns="http://www.w3.org/2000/svg">
<path d="M21.5 7.93447C21.5 7.88291 21.5 7.82432 21.4977 7.75635C21.4953 7.5665 21.4906 7.35322 21.4859 7.12588C21.4672 6.47197 21.4344 5.82041 21.3828 5.20635C21.3125 4.36025 21.2094 3.65478 21.0687 3.1251C20.9204 2.57232 20.6295 2.06818 20.2252 1.66306C19.8209 1.25794 19.3173 0.966026 18.7648 0.816504C18.1016 0.638379 16.8031 0.528223 14.975 0.460254C14.1055 0.427441 13.175 0.406348 12.2445 0.394629C11.9187 0.389941 11.6164 0.387598 11.3445 0.385254H10.6555C10.3836 0.387598 10.0813 0.389941 9.75547 0.394629C8.825 0.406348 7.89453 0.427441 7.025 0.460254C5.19687 0.530566 3.89609 0.640723 3.23516 0.816504C2.6825 0.965659 2.17876 1.25745 1.7744 1.66262C1.37004 2.0678 1.07928 2.57214 0.93125 3.1251C0.788281 3.65478 0.6875 4.36025 0.617188 5.20635C0.565625 5.82041 0.532812 6.47197 0.514062 7.12588C0.507031 7.35322 0.504687 7.5665 0.502344 7.75635C0.502344 7.82432 0.5 7.88291 0.5 7.93447V8.06572C0.5 8.11728 0.5 8.17588 0.502344 8.24385C0.504687 8.43369 0.509375 8.64697 0.514062 8.87432C0.532812 9.52822 0.565625 10.1798 0.617188 10.7938C0.6875 11.6399 0.790625 12.3454 0.93125 12.8751C1.23125 13.9978 2.1125 14.8837 3.23516 15.1837C3.89609 15.3618 5.19687 15.472 7.025 15.5399C7.89453 15.5728 8.825 15.5938 9.75547 15.6056C10.0813 15.6103 10.3836 15.6126 10.6555 15.6149H11.3445C11.6164 15.6126 11.9187 15.6103 12.2445 15.6056C13.175 15.5938 14.1055 15.5728 14.975 15.5399C16.8031 15.4696 18.1039 15.3595 18.7648 15.1837C19.8875 14.8837 20.7687 14.0001 21.0687 12.8751C21.2117 12.3454 21.3125 11.6399 21.3828 10.7938C21.4344 10.1798 21.4672 9.52822 21.4859 8.87432C21.493 8.64697 21.4953 8.43369 21.4977 8.24385C21.4977 8.17588 21.5 8.11728 21.5 8.06572V7.93447ZM19.8125 8.05635C19.8125 8.10557 19.8125 8.15947 19.8102 8.22275C19.8078 8.40557 19.8031 8.60713 19.7984 8.8251C19.782 9.44853 19.7492 10.072 19.7 10.6509C19.6367 11.4056 19.5477 12.0243 19.4375 12.4392C19.2922 12.9806 18.8656 13.4095 18.3266 13.5524C17.8344 13.6837 16.5945 13.7892 14.9094 13.8524C14.0562 13.8853 13.1375 13.9063 12.2211 13.9181C11.9 13.9228 11.6023 13.9251 11.3352 13.9251H10.6648L9.77891 13.9181C8.8625 13.9063 7.94609 13.8853 7.09063 13.8524C5.40547 13.7868 4.16328 13.6837 3.67344 13.5524C3.13437 13.4071 2.70781 12.9806 2.5625 12.4392C2.45234 12.0243 2.36328 11.4056 2.3 10.6509C2.25078 10.072 2.22031 9.44853 2.20156 8.8251C2.19453 8.60713 2.19219 8.40322 2.18984 8.22275C2.18984 8.15947 2.1875 8.10322 2.1875 8.05635V7.94385C2.1875 7.89463 2.1875 7.84072 2.18984 7.77744C2.19219 7.59463 2.19688 7.39307 2.20156 7.1751C2.21797 6.55166 2.25078 5.92822 2.3 5.34932C2.36328 4.59463 2.45234 3.97588 2.5625 3.56104C2.70781 3.01963 3.13437 2.59072 3.67344 2.44775C4.16562 2.3165 5.40547 2.21103 7.09063 2.14775C7.94375 2.11494 8.8625 2.09385 9.77891 2.08213C10.1 2.07744 10.3977 2.0751 10.6648 2.0751H11.3352L12.2211 2.08213C13.1375 2.09385 14.0539 2.11494 14.9094 2.14775C16.5945 2.21338 17.8367 2.3165 18.3266 2.44775C18.8656 2.59307 19.2922 3.01963 19.4375 3.56104C19.5477 3.97588 19.6367 4.59463 19.7 5.34932C19.7492 5.92822 19.7797 6.55166 19.7984 7.1751C19.8055 7.39307 19.8078 7.59697 19.8102 7.77744C19.8102 7.84072 19.8125 7.89697 19.8125 7.94385V8.05635ZM8.91406 11.1407L14.3516 7.97666L8.91406 4.85947V11.1407Z" fill="white"/>
</svg>
